<svg width="133" height="15" viewBox="0 0 133 15" fill="none" xmlns="http://www.w3.org/2000/svg">
<path fill-rule="evenodd" clip-rule="evenodd" d="M45.0977 1.62845C45.0977 2.54411 44.3865 3.27687 43.4718 3.27687C42.5776 3.27687 41.8458 2.54411 41.8458 1.62845C41.8458 0.712503 42.5776 0 43.4718 0C44.3865 0 45.0977 0.73276 45.0977 1.62845ZM17.7359 5.51552C17.4428 4.92543 16.2756 4.39612 15.2797 4.39612C12.2714 4.39612 10.6166 6.49253 10.6166 9.70804C10.6166 12.9238 12.2655 15 15.2533 15C16.4322 15 17.4428 14.3688 17.7359 13.7787V14.788H20.3746V0.40293H17.7359V5.51552ZM4.32382 4.39621C2.27097 4.39621 0.739107 5.55641 0.41397 7.24563L2.54451 7.73414C2.80867 6.94032 3.3619 6.57394 4.29685 6.57394C5.4552 6.57394 6.00873 7.06244 6.00873 8.05971V8.62308H4.37014C1.78869 8.62308 0 9.86783 0 11.9234L0.0205226 11.9149C0.0205226 13.9095 1.34159 14.9939 3.12999 14.9939C4.43083 14.9939 5.48775 14.4737 6.28051 13.5172L6.54466 14.7881H8.64735V8.71086C8.64735 5.84118 7.18966 4.39621 4.32382 4.39621ZM6.00873 10.7054C6.00873 11.9672 4.88438 12.8018 3.66505 12.8018C2.97402 12.8018 2.62514 12.2748 2.62514 11.7661C2.62514 10.8909 3.23173 10.3845 4.39037 10.3845H6.00873V10.7054ZM13.2705 9.70804C13.2705 11.6418 14.2664 12.8425 15.6485 12.8425C17.0308 12.8425 18.0062 11.6823 18.0062 9.70804C18.0062 7.7135 17.0308 6.57385 15.6485 6.57385C14.2664 6.57385 13.2705 7.75431 13.2705 9.70804ZM31.3102 6.53325C32.1029 5.12908 33.1027 4.41658 34.4035 4.41658C36.2939 4.41658 37.379 5.59704 37.379 7.59158V14.7882H35.0336V8.01902C35.0336 7.06227 34.5853 6.59431 33.7521 6.59431C32.4718 6.59431 31.5154 8.10034 31.5154 10.8682V14.7882H28.8768V8.01902C28.8768 7.06227 28.5751 6.59431 27.7419 6.59431C26.4613 6.59431 25.6518 8.16141 25.6518 11.0719V14.7882H23.0132V4.51317H25.6518V6.22793C26.2382 5.04747 27.3631 4.41658 28.5215 4.41658C29.8428 4.41658 30.8833 5.12908 31.3102 6.53325ZM55.5562 4.41658C54.2958 4.41658 53.2107 5.04747 52.3312 6.24819V4.51317H49.9858V14.7882H52.3312V10.7463C52.3312 8.16141 53.3934 6.59431 54.6942 6.59431C55.6696 6.59431 56.1425 7.14388 56.1425 8.26328V14.7882H58.7812V7.50997C58.7812 5.49517 57.4261 4.41658 55.5562 4.41658ZM75.0986 8.85013C75.2951 8.91521 75.4477 8.96575 75.5611 9.01618C75.8455 9.1383 76.74 9.62681 77.0041 9.95238C77.2888 10.2985 77.6544 10.9088 77.6544 11.6011C77.6544 13.4732 76.1504 14.9998 73.9961 14.9998C72.0652 14.9998 70.5407 13.677 69.9514 12.232L71.8823 11.1939C72.2886 12.3133 72.9797 12.8831 73.9351 12.8831C74.7886 12.8831 75.1949 12.5167 75.1949 11.7843C75.1949 11.1328 74.5241 10.8683 73.3863 10.4817C71.6788 9.91158 70.5814 9.21962 70.5814 7.44908C70.5814 5.82092 71.9635 4.45727 73.8738 4.45727C75.2157 4.45727 76.4348 5.12897 77.1056 6.12624L75.5813 7.51014C75.1339 6.91977 74.5649 6.61474 73.8738 6.61474C73.3661 6.61474 72.9594 6.91977 72.9594 7.46934C72.9594 7.87652 73.2846 8.2021 73.9351 8.46661L74.6871 8.71086C74.8415 8.76495 74.9783 8.81026 75.0986 8.85013ZM84.1852 12.8425C83.291 12.8425 82.8219 12.3948 82.8219 11.1736V6.86155H85.4606V4.51296H82.8219V0.42759L80.4765 2.03549V4.51296H78.7174V6.86155H80.1833V11.2144C80.1833 13.7585 81.6976 15 84.0958 15C84.6446 15 85.2084 14.8776 85.7168 14.6336L85.134 12.5983C84.8291 12.7609 84.5104 12.8425 84.1852 12.8425ZM45.0017 4.80662H40.8972V7.15521H42.3631V12.7331H40.0176V14.7881H47.3471V12.7331H45.0017V4.80662ZM66.2067 1.62845C66.2067 2.54411 65.4955 3.27687 64.5807 3.27687C63.6865 3.27687 62.9548 2.54411 62.9548 1.62845C62.9548 0.712503 63.6865 0 64.5807 0C65.4955 0 66.2067 0.73276 66.2067 1.62845ZM66.1107 4.80662H62.0061V7.15521H63.472V12.7331H61.1266V14.7881H68.4561V12.7331H66.1107V4.80662ZM90.1515 4.5129V6.24822C91.031 5.06776 91.9997 4.39606 93.2193 4.39606C93.5849 4.39606 94.0513 4.47767 94.4981 4.62006L94.0223 6.94046C93.7177 6.77753 93.3553 6.67566 92.9897 6.67566C91.384 6.67566 90.1515 7.97825 90.1515 11.1941V14.788H87.806V4.5129H90.1515ZM99.3594 4.39621C97.3065 4.39621 95.7975 5.55641 95.4724 7.24563L97.6141 7.73414C97.8785 6.94032 98.5387 6.57394 99.4734 6.57394C100.632 6.57394 101.292 7.06244 101.292 8.05971V8.62308H99.4511C96.8697 8.62308 95.0813 9.86783 95.0813 11.9234L95.1015 11.9149C95.1015 13.9095 96.4229 14.9939 98.2113 14.9939C99.5121 14.9939 100.569 14.4737 101.362 13.5172L101.626 14.7881H103.638V8.71086C103.638 5.84118 102.225 4.39621 99.3594 4.39621ZM98.8472 12.8018C100.067 12.8018 101.292 11.9672 101.292 10.7054V10.3845H99.4714C98.3127 10.3845 97.7571 10.8909 97.7571 11.7661C97.7571 12.2748 98.1561 12.8018 98.8472 12.8018ZM109.208 11.1736C109.208 12.3948 109.685 12.8425 110.579 12.8425C110.904 12.8425 111.262 12.7609 111.566 12.5983L112.188 14.6336C111.68 14.8776 111.185 15 110.636 15C108.238 15 106.863 13.7585 106.863 11.2144V6.86155H105.104V4.51296H106.863V2.03549L109.208 0.42759V4.51296H111.847V6.86155H109.208V11.1736ZM118.428 4.4369C115.216 4.4369 113.225 6.67569 113.225 9.70801C113.225 12.7406 115.216 14.9794 118.428 14.9794C121.619 14.9794 123.631 12.7406 123.631 9.70801C123.631 6.67569 121.619 4.4369 118.428 4.4369ZM115.867 9.72856C115.867 11.4583 116.843 12.8628 118.428 12.8628C120.013 12.8628 120.989 11.4583 120.989 9.72856C120.989 7.97828 120.013 6.57382 118.428 6.57382C116.843 6.57382 115.867 7.97828 115.867 9.72856ZM128.265 6.2483C128.851 5.06784 130.064 4.39615 131.284 4.39615C131.649 4.39615 132.077 4.47776 132.524 4.62014L132.056 6.94026C131.752 6.77762 131.416 6.67575 131.05 6.67575C129.444 6.67575 128.265 7.97833 128.265 11.1938V14.7881H125.626V4.51299H128.265V6.2483Z" fill="white"/>
</svg>
