<svg width="60" height="60" viewBox="0 0 60 60" fill="none" xmlns="http://www.w3.org/2000/svg">
<g filter="url(#filter0_dd)">
<rect x="3" y="3" width="52" height="52" rx="26" fill="#4ECE3D"/>
<rect x="3.5" y="3.5" width="51" height="51" rx="25.5" stroke="black" stroke-opacity="0.05"/>
</g>
<g filter="url(#filter1_i)">
<rect x="3" y="3" width="52" height="52" rx="26" fill="black" fill-opacity="0.01"/>
</g>
<path fill-rule="evenodd" clip-rule="evenodd" d="M36 19H22C20.89 19 20 19.9 20 21V35C20 36.1 20.89 37 22 37H26L29 40L32 37H36C37.1 37 38 36.1 38 35V21C38 19.9 37.1 19 36 19ZM30 35H28V33H30V35ZM32.07 27.25L31.17 28.17C30.45 28.9 30 29.5 30 31H28V30.5C28 29.4 28.45 28.4 29.17 27.67L30.41 26.41C30.78 26.05 31 25.55 31 25C31 23.9 30.1 23 29 23C27.9 23 27 23.9 27 25H25C25 22.79 26.79 21 29 21C31.21 21 33 22.79 33 25C33 25.88 32.64 26.68 32.07 27.25Z" fill="white"/>
<defs>
<filter id="filter0_dd" x="0" y="0" width="60" height="60" filterUnits="userSpaceOnUse" color-interpolation-filters="sRGB">
<feFlood flood-opacity="0" result="BackgroundImageFix"/>
<feColorMatrix in="SourceAlpha" type="matrix" values="0 0 0 0 0 0 0 0 0 0 0 0 0 0 0 0 0 0 127 0"/>
<feOffset dx="1" dy="1"/>
<feGaussianBlur stdDeviation="2"/>
<feColorMatrix type="matrix" values="0 0 0 0 0 0 0 0 0 0 0 0 0 0 0 0 0 0 0.152202 0"/>
<feBlend mode="normal" in2="BackgroundImageFix" result="effect1_dropShadow"/>
<feColorMatrix in="SourceAlpha" type="matrix" values="0 0 0 0 0 0 0 0 0 0 0 0 0 0 0 0 0 0 127 0"/>
<feOffset dx="1" dy="1"/>
<feGaussianBlur stdDeviation="0.5"/>
<feColorMatrix type="matrix" values="0 0 0 0 0.125469 0 0 0 0 0.131001 0 0 0 0 0.137915 0 0 0 0.0899853 0"/>
<feBlend mode="normal" in2="effect1_dropShadow" result="effect2_dropShadow"/>
<feBlend mode="normal" in="SourceGraphic" in2="effect2_dropShadow" result="shape"/>
</filter>
<filter id="filter1_i" x="3" y="3" width="52" height="52" filterUnits="userSpaceOnUse" color-interpolation-filters="sRGB">
<feFlood flood-opacity="0" result="BackgroundImageFix"/>
<feBlend mode="normal" in="SourceGraphic" in2="BackgroundImageFix" result="shape"/>
<feColorMatrix in="SourceAlpha" type="matrix" values="0 0 0 0 0 0 0 0 0 0 0 0 0 0 0 0 0 0 127 0" result="hardAlpha"/>
<feOffset dx="1" dy="1"/>
<feComposite in2="hardAlpha" operator="arithmetic" k2="-1" k3="1"/>
<feColorMatrix type="matrix" values="0 0 0 0 1 0 0 0 0 1 0 0 0 0 1 0 0 0 0.200747 0"/>
<feBlend mode="normal" in2="shape" result="effect1_innerShadow"/>
</filter>
</defs>
</svg>
